<svg width="960" height="720" viewBox="0 0 960 720" fill="none" xmlns="http://www.w3.org/2000/svg">
  <defs>
    <linearGradient id="bg" x1="112" y1="78" x2="844" y2="642" gradientUnits="userSpaceOnUse">
      <stop stop-color="#1C1917"/>
      <stop offset="1" stop-color="#B45309"/>
    </linearGradient>
  </defs>
  <rect width="960" height="720" rx="48" fill="url(#bg)"/>
  <circle cx="776" cy="120" r="112" fill="#FDE68A" fill-opacity="0.24"/>
  <circle cx="182" cy="594" r="150" fill="#FBBF24" fill-opacity="0.14"/>
  <rect x="96" y="94" width="768" height="532" rx="32" fill="#0F172A" fill-opacity="0.58" stroke="#FDE68A" stroke-opacity="0.24" stroke-width="2"/>
  <path d="M182 544H784" stroke="#14532D" stroke-width="16" stroke-linecap="round"/>
  <path d="M280 544V314" stroke="#E2E8F0" stroke-width="16" stroke-linecap="round"/>
  <path d="M480 544V264" stroke="#E2E8F0" stroke-width="16" stroke-linecap="round"/>
  <path d="M680 544V338" stroke="#E2E8F0" stroke-width="16" stroke-linecap="round"/>
  <circle cx="280" cy="280" r="54" fill="#FDE68A"/>
  <circle cx="480" cy="226" r="64" fill="#FCD34D"/>
  <circle cx="680" cy="304" r="56" fill="#FDE68A"/>
  <rect x="176" y="178" width="132" height="56" rx="18" fill="#1E293B"/>
  <rect x="410" y="124" width="142" height="62" rx="20" fill="#1E293B"/>
  <rect x="596" y="198" width="140" height="58" rx="18" fill="#1E293B"/>
  <path d="M196 206H288" stroke="#FCD34D" stroke-width="6" stroke-linecap="round"/>
  <path d="M432 154H530" stroke="#FCD34D" stroke-width="6" stroke-linecap="round"/>
  <path d="M616 226H716" stroke="#FCD34D" stroke-width="6" stroke-linecap="round"/>
  <rect x="132" y="126" width="192" height="42" rx="21" fill="#111827"/>
  <text x="160" y="153" fill="#FEF3C7" font-family="Arial, sans-serif" font-size="24" font-weight="700">Garden solar set</text>
  <rect x="134" y="562" width="190" height="40" rx="20" fill="#111827" fill-opacity="0.9"/>
  <text x="162" y="588" fill="#E2E8F0" font-family="Arial, sans-serif" font-size="22" font-weight="700">Auto night on</text>
  <rect x="620" y="562" width="194" height="40" rx="20" fill="#111827" fill-opacity="0.9"/>
  <text x="646" y="588" fill="#FDE68A" font-family="Arial, sans-serif" font-size="22" font-weight="700">Replaceable pack</text>
</svg>
