<svg width="960" height="720" viewBox="0 0 960 720" fill="none" xmlns="http://www.w3.org/2000/svg">
  <defs>
    <linearGradient id="bg" x1="102" y1="84" x2="860" y2="642" gradientUnits="userSpaceOnUse">
      <stop stop-color="#0F172A"/>
      <stop offset="1" stop-color="#166534"/>
    </linearGradient>
  </defs>
  <rect width="960" height="720" rx="48" fill="url(#bg)"/>
  <circle cx="800" cy="116" r="120" fill="#86EFAC" fill-opacity="0.14"/>
  <circle cx="170" cy="596" r="150" fill="#4ADE80" fill-opacity="0.12"/>
  <rect x="96" y="94" width="768" height="532" rx="32" fill="#020617" fill-opacity="0.72" stroke="#BBF7D0" stroke-opacity="0.24" stroke-width="2"/>
  <rect x="236" y="162" width="484" height="372" rx="30" fill="#E2E8F0"/>
  <rect x="270" y="196" width="416" height="304" rx="24" fill="#0F172A"/>
  <path d="M270 292H686" stroke="#1E293B" stroke-width="8"/>
  <path d="M270 380H686" stroke="#1E293B" stroke-width="8"/>
  <rect x="306" y="228" width="146" height="46" rx="14" fill="#16A34A"/>
  <rect x="484" y="228" width="166" height="46" rx="14" fill="#22C55E"/>
  <rect x="306" y="318" width="108" height="118" rx="18" fill="#14532D"/>
  <rect x="440" y="318" width="108" height="118" rx="18" fill="#166534"/>
  <rect x="574" y="318" width="76" height="118" rx="18" fill="#15803D"/>
  <rect x="132" y="126" width="208" height="42" rx="21" fill="#111827"/>
  <text x="160" y="153" fill="#DCFCE7" font-family="Arial, sans-serif" font-size="24" font-weight="700">Energy bank 51.2V</text>
  <rect x="126" y="562" width="188" height="40" rx="20" fill="#111827" fill-opacity="0.9"/>
  <text x="154" y="588" fill="#E2E8F0" font-family="Arial, sans-serif" font-size="22" font-weight="700">Family backup</text>
  <rect x="614" y="562" width="200" height="40" rx="20" fill="#111827" fill-opacity="0.9"/>
  <text x="640" y="588" fill="#86EFAC" font-family="Arial, sans-serif" font-size="22" font-weight="700">Expandable BMS</text>
</svg>
