<svg width="960" height="720" viewBox="0 0 960 720" fill="none" xmlns="http://www.w3.org/2000/svg">
  <defs>
    <linearGradient id="bg" x1="120" y1="82" x2="844" y2="642" gradientUnits="userSpaceOnUse">
      <stop stop-color="#0F172A"/>
      <stop offset="1" stop-color="#065F46"/>
    </linearGradient>
  </defs>
  <rect width="960" height="720" rx="48" fill="url(#bg)"/>
  <circle cx="786" cy="110" r="118" fill="#86EFAC" fill-opacity="0.16"/>
  <circle cx="164" cy="600" r="150" fill="#34D399" fill-opacity="0.12"/>
  <rect x="96" y="94" width="768" height="532" rx="32" fill="#0B1120" fill-opacity="0.72" stroke="#A7F3D0" stroke-opacity="0.24" stroke-width="2"/>
  <rect x="216" y="212" width="346" height="230" rx="28" fill="#D1FAE5"/>
  <rect x="250" y="246" width="278" height="162" rx="22" fill="#1F2937"/>
  <path d="M388 268V390" stroke="#A7F3D0" stroke-width="12" stroke-linecap="round"/>
  <path d="M332 330H444" stroke="#A7F3D0" stroke-width="12" stroke-linecap="round"/>
  <path d="M562 304L710 226" stroke="#E2E8F0" stroke-width="14" stroke-linecap="round"/>
  <path d="M562 362L716 428" stroke="#E2E8F0" stroke-width="14" stroke-linecap="round"/>
  <rect x="702" y="202" width="84" height="48" rx="16" fill="#EF4444"/>
  <rect x="708" y="408" width="84" height="48" rx="16" fill="#22C55E"/>
  <rect x="132" y="126" width="192" height="42" rx="21" fill="#111827"/>
  <text x="160" y="153" fill="#D1FAE5" font-family="Arial, sans-serif" font-size="24" font-weight="700">Starter 12V kit</text>
  <rect x="130" y="562" width="180" height="40" rx="20" fill="#111827" fill-opacity="0.9"/>
  <text x="158" y="588" fill="#E2E8F0" font-family="Arial, sans-serif" font-size="22" font-weight="700">Ready in car</text>
  <rect x="620" y="562" width="194" height="40" rx="20" fill="#111827" fill-opacity="0.9"/>
  <text x="646" y="588" fill="#86EFAC" font-family="Arial, sans-serif" font-size="22" font-weight="700">Peak current</text>
</svg>
